<svg width="37" height="37" viewBox="0 0 37 37" fill="none" xmlns="http://www.w3.org/2000/svg">
<g id="Instagram">
<path id="Vector" d="M13.25 36H23.75C32.5 36 36 32.5 36 23.75V13.25C36 4.5 32.5 1 23.75 1H13.25C4.5 1 1 4.5 1 13.25V23.75C1 32.5 4.5 36 13.25 36Z" fill="white" stroke="#44425A" stroke-width="1.5" stroke-linecap="round" stroke-linejoin="round"/>
<path id="Vector_2" d="M18.5 24.625C19.3043 24.625 20.1008 24.4666 20.8439 24.1588C21.5871 23.851 22.2623 23.3998 22.831 22.831C23.3998 22.2623 23.851 21.5871 24.1588 20.8439C24.4666 20.1008 24.625 19.3043 24.625 18.5C24.625 17.6957 24.4666 16.8992 24.1588 16.1561C23.851 15.4129 23.3998 14.7377 22.831 14.169C22.2623 13.6002 21.5871 13.149 20.8439 12.8412C20.1008 12.5334 19.3043 12.375 18.5 12.375C16.8755 12.375 15.3176 13.0203 14.169 14.169C13.0203 15.3176 12.375 16.8755 12.375 18.5C12.375 20.1245 13.0203 21.6824 14.169 22.831C15.3176 23.9797 16.8755 24.625 18.5 24.625Z" fill="white" stroke="#44425A" stroke-width="1.5" stroke-linecap="round" stroke-linejoin="round"/>
<g id="Vector_3">
<path d="M28.3628 9.75H28.3838H28.3628Z" fill="white"/>
<path d="M28.3628 9.75H28.3838" stroke="#44425A" stroke-width="2" stroke-linecap="round" stroke-linejoin="round"/>
</g>
</g>
</svg>
