<svg width="30" height="26" viewBox="0 0 30 26" fill="none" xmlns="http://www.w3.org/2000/svg">
<path id="Vector" d="M5.83449 11.0792C8.15539 15.1041 11.8946 18.3894 16.4558 20.4516L20.0017 17.3227C20.4368 16.9387 21.0815 16.8107 21.6456 16.9814C23.4508 17.5076 25.401 17.7921 27.3995 17.7921C28.286 17.7921 29.0113 18.4321 29.0113 19.2143V24.1779C29.0113 24.9601 28.286 25.6001 27.3995 25.6001C12.2653 25.6001 0 14.7769 0 1.42223C0 0.640003 0.725282 0 1.61174 0H7.25282C8.13927 0 8.86455 0.640003 8.86455 1.42223C8.86455 3.20001 9.1869 4.90669 9.78324 6.49958C9.96053 6.99736 9.83159 7.55203 9.38031 7.95025L5.83449 11.0792Z" fill="#44425A"/>
</svg>
