<svg width="35" height="29" viewBox="0 0 35 29" fill="none" xmlns="http://www.w3.org/2000/svg">
<path id="Vector" d="M34.9333 3.38953C33.6459 3.95391 32.2678 4.34219 30.8153 4.51828C32.2973 3.62906 33.4305 2.2225 33.9708 0.546875C32.5806 1.35625 31.0428 1.9425 29.4077 2.27391C28.1039 0.878281 26.2402 0 24.1719 0C20.207 0 16.9936 3.21234 16.9936 7.17172C16.9936 7.74156 17.0625 8.28844 17.1817 8.80688C11.2175 8.52797 5.93031 5.66234 2.39422 1.33328C1.77297 2.38766 1.41969 3.61266 1.41969 4.94594C1.41969 7.44078 2.68953 9.62828 4.60906 10.9145C3.43547 10.8806 2.33078 10.5558 1.36281 10.0209V10.1073C1.36281 13.5866 3.83469 16.4872 7.11594 17.1478C6.51766 17.3064 5.87891 17.3983 5.23031 17.3983C4.76984 17.3983 4.33016 17.3534 3.89156 17.2725C4.81469 20.1206 7.45719 22.1944 10.6072 22.2567C8.15828 24.1763 5.05422 25.3203 1.70953 25.3203C1.13969 25.3203 0.570938 25.293 0 25.2241C3.19047 27.2584 6.95625 28.4484 11.0239 28.4484C24.2222 28.4484 31.4344 17.5164 31.4344 8.04891C31.4344 7.74703 31.4344 7.43969 31.4114 7.13125C32.8191 6.12828 34.0375 4.85734 35 3.41688L34.9333 3.38953Z" fill="#44425A"/>
</svg>
